<mxfile host="app.diagrams.net" agent="Mozilla/5.0 (Windows NT 10.0; Win64; x64) AppleWebKit/537.36 (KHTML, like Gecko) Chrome/134.0.0.0 Safari/537.36" version="26.1.1">
  <diagram name="Page-1" id="QZyZWYbe1qtpid20EvLY">
    <mxGraphModel dx="1400" dy="759" grid="0" gridSize="10" guides="1" tooltips="1" connect="1" arrows="1" fold="1" page="1" pageScale="1" pageWidth="1169" pageHeight="1654" math="0" shadow="0">
      <root>
        <mxCell id="0" />
        <mxCell id="1" parent="0" />
        <mxCell id="VcMTMCc4IQAr84tjY3mS-80" value="" style="whiteSpace=wrap;html=1;aspect=fixed;" vertex="1" parent="1">
          <mxGeometry x="27" y="76" width="1108" height="1108" as="geometry" />
        </mxCell>
        <mxCell id="VcMTMCc4IQAr84tjY3mS-81" style="edgeStyle=orthogonalEdgeStyle;rounded=0;orthogonalLoop=1;jettySize=auto;html=1;exitX=0.489;exitY=0.852;exitDx=0;exitDy=0;entryX=0.5;entryY=0;entryDx=0;entryDy=0;exitPerimeter=0;" edge="1" parent="1" source="VcMTMCc4IQAr84tjY3mS-82" target="VcMTMCc4IQAr84tjY3mS-108">
          <mxGeometry relative="1" as="geometry" />
        </mxCell>
        <mxCell id="VcMTMCc4IQAr84tjY3mS-82" value="" style="ellipse;html=1;shape=startState;fillColor=#000000;strokeColor=#ff0000;" vertex="1" parent="1">
          <mxGeometry x="165" y="142" width="30" height="30" as="geometry" />
        </mxCell>
        <mxCell id="VcMTMCc4IQAr84tjY3mS-83" style="edgeStyle=orthogonalEdgeStyle;rounded=0;orthogonalLoop=1;jettySize=auto;html=1;entryX=0.5;entryY=0;entryDx=0;entryDy=0;" edge="1" parent="1" source="VcMTMCc4IQAr84tjY3mS-87" target="VcMTMCc4IQAr84tjY3mS-89">
          <mxGeometry relative="1" as="geometry" />
        </mxCell>
        <mxCell id="VcMTMCc4IQAr84tjY3mS-84" value="Yes" style="edgeLabel;html=1;align=center;verticalAlign=middle;resizable=0;points=[];" vertex="1" connectable="0" parent="VcMTMCc4IQAr84tjY3mS-83">
          <mxGeometry x="-0.1107" y="-3" relative="1" as="geometry">
            <mxPoint as="offset" />
          </mxGeometry>
        </mxCell>
        <mxCell id="VcMTMCc4IQAr84tjY3mS-85" style="edgeStyle=orthogonalEdgeStyle;rounded=0;orthogonalLoop=1;jettySize=auto;html=1;exitX=1;exitY=0.5;exitDx=0;exitDy=0;exitPerimeter=0;entryX=0.5;entryY=0;entryDx=0;entryDy=0;" edge="1" parent="1" source="VcMTMCc4IQAr84tjY3mS-87" target="VcMTMCc4IQAr84tjY3mS-103">
          <mxGeometry relative="1" as="geometry" />
        </mxCell>
        <mxCell id="VcMTMCc4IQAr84tjY3mS-86" value="No" style="edgeLabel;html=1;align=center;verticalAlign=middle;resizable=0;points=[];" vertex="1" connectable="0" parent="VcMTMCc4IQAr84tjY3mS-85">
          <mxGeometry x="-0.4152" y="-2" relative="1" as="geometry">
            <mxPoint as="offset" />
          </mxGeometry>
        </mxCell>
        <mxCell id="VcMTMCc4IQAr84tjY3mS-87" value="Is Valid" style="strokeWidth=2;html=1;shape=mxgraph.flowchart.decision;whiteSpace=wrap;" vertex="1" parent="1">
          <mxGeometry x="581" y="458" width="100" height="100" as="geometry" />
        </mxCell>
        <mxCell id="VcMTMCc4IQAr84tjY3mS-88" style="edgeStyle=orthogonalEdgeStyle;rounded=0;orthogonalLoop=1;jettySize=auto;html=1;exitX=0.5;exitY=1;exitDx=0;exitDy=0;entryX=0.5;entryY=0;entryDx=0;entryDy=0;" edge="1" parent="1" source="VcMTMCc4IQAr84tjY3mS-89" target="VcMTMCc4IQAr84tjY3mS-91">
          <mxGeometry relative="1" as="geometry" />
        </mxCell>
        <mxCell id="VcMTMCc4IQAr84tjY3mS-89" value="&lt;div style=&quot;font-family: Consolas, &amp;quot;Courier New&amp;quot;, monospace; font-size: 14px; line-height: 19px; white-space: pre;&quot;&gt;&lt;span style=&quot;background-color: rgb(255, 255, 255);&quot;&gt;&lt;font style=&quot;color: rgb(0, 0, 0);&quot;&gt;Retrieve Historical Data&lt;/font&gt;&lt;/span&gt;&lt;/div&gt;" style="rounded=1;arcSize=10;whiteSpace=wrap;html=1;align=center;" vertex="1" parent="1">
          <mxGeometry x="371" y="558" width="200" height="40" as="geometry" />
        </mxCell>
        <mxCell id="VcMTMCc4IQAr84tjY3mS-90" style="edgeStyle=orthogonalEdgeStyle;rounded=0;orthogonalLoop=1;jettySize=auto;html=1;exitX=0.5;exitY=1;exitDx=0;exitDy=0;entryX=0.5;entryY=0;entryDx=0;entryDy=0;" edge="1" parent="1" source="VcMTMCc4IQAr84tjY3mS-91" target="VcMTMCc4IQAr84tjY3mS-93">
          <mxGeometry relative="1" as="geometry" />
        </mxCell>
        <mxCell id="VcMTMCc4IQAr84tjY3mS-91" value="&lt;div style=&quot;font-family: Consolas, &amp;quot;Courier New&amp;quot;, monospace; font-size: 14px; line-height: 19px; white-space: pre;&quot;&gt;&lt;span style=&quot;background-color: rgb(255, 255, 255);&quot;&gt;&lt;font style=&quot;color: rgb(0, 0, 0);&quot;&gt;Preprocess Data&lt;/font&gt;&lt;/span&gt;&lt;/div&gt;" style="rounded=1;arcSize=10;whiteSpace=wrap;html=1;align=center;" vertex="1" parent="1">
          <mxGeometry x="386" y="638" width="170" height="40" as="geometry" />
        </mxCell>
        <mxCell id="VcMTMCc4IQAr84tjY3mS-92" style="edgeStyle=orthogonalEdgeStyle;rounded=0;orthogonalLoop=1;jettySize=auto;html=1;exitX=0.5;exitY=1;exitDx=0;exitDy=0;entryX=0.5;entryY=0;entryDx=0;entryDy=0;" edge="1" parent="1" source="VcMTMCc4IQAr84tjY3mS-93" target="VcMTMCc4IQAr84tjY3mS-95">
          <mxGeometry relative="1" as="geometry">
            <Array as="points">
              <mxPoint x="472" y="769" />
              <mxPoint x="1035" y="769" />
            </Array>
          </mxGeometry>
        </mxCell>
        <mxCell id="VcMTMCc4IQAr84tjY3mS-93" value="&lt;div style=&quot;font-family: Consolas, &amp;quot;Courier New&amp;quot;, monospace; font-size: 14px; line-height: 19px; white-space: pre;&quot;&gt;&lt;span style=&quot;background-color: rgb(255, 255, 255);&quot;&gt;&lt;font style=&quot;color: rgb(0, 0, 0);&quot;&gt;Load LSTM Model&lt;/font&gt;&lt;/span&gt;&lt;/div&gt;" style="rounded=1;arcSize=10;whiteSpace=wrap;html=1;align=center;" vertex="1" parent="1">
          <mxGeometry x="402" y="718" width="140" height="40" as="geometry" />
        </mxCell>
        <mxCell id="VcMTMCc4IQAr84tjY3mS-94" style="edgeStyle=orthogonalEdgeStyle;rounded=0;orthogonalLoop=1;jettySize=auto;html=1;exitX=0.5;exitY=1;exitDx=0;exitDy=0;entryX=0.5;entryY=0;entryDx=0;entryDy=0;" edge="1" parent="1" source="VcMTMCc4IQAr84tjY3mS-95" target="VcMTMCc4IQAr84tjY3mS-97">
          <mxGeometry relative="1" as="geometry">
            <Array as="points">
              <mxPoint x="1035" y="838" />
              <mxPoint x="508" y="838" />
            </Array>
          </mxGeometry>
        </mxCell>
        <mxCell id="VcMTMCc4IQAr84tjY3mS-95" value="&lt;div style=&quot;font-family: Consolas, &amp;quot;Courier New&amp;quot;, monospace; font-size: 14px; line-height: 19px; white-space: pre;&quot;&gt;&lt;span style=&quot;background-color: rgb(255, 255, 255);&quot;&gt;&lt;font style=&quot;color: rgb(0, 0, 0);&quot;&gt;Generate Price&lt;/font&gt;&lt;/span&gt;&lt;/div&gt;&lt;div style=&quot;font-family: Consolas, &amp;quot;Courier New&amp;quot;, monospace; font-size: 14px; line-height: 19px; white-space: pre;&quot;&gt;&lt;span style=&quot;background-color: rgb(255, 255, 255);&quot;&gt;&lt;font style=&quot;color: rgb(0, 0, 0);&quot;&gt;Predictions&lt;/font&gt;&lt;/span&gt;&lt;/div&gt;" style="rounded=1;arcSize=10;whiteSpace=wrap;html=1;align=center;" vertex="1" parent="1">
          <mxGeometry x="954" y="785" width="163" height="40" as="geometry" />
        </mxCell>
        <mxCell id="VcMTMCc4IQAr84tjY3mS-139" style="edgeStyle=orthogonalEdgeStyle;rounded=0;orthogonalLoop=1;jettySize=auto;html=1;exitX=0.5;exitY=1;exitDx=0;exitDy=0;entryX=0.5;entryY=0;entryDx=0;entryDy=0;" edge="1" parent="1" source="VcMTMCc4IQAr84tjY3mS-97" target="VcMTMCc4IQAr84tjY3mS-138">
          <mxGeometry relative="1" as="geometry" />
        </mxCell>
        <mxCell id="VcMTMCc4IQAr84tjY3mS-97" value="&lt;div style=&quot;font-family: Consolas, &amp;quot;Courier New&amp;quot;, monospace; font-size: 14px; line-height: 19px; white-space: pre;&quot;&gt;&lt;span style=&quot;background-color: rgb(255, 255, 255);&quot;&gt;&lt;font style=&quot;color: rgb(0, 0, 0);&quot;&gt;Calculate Error Metrics&lt;/font&gt;&lt;/span&gt;&lt;/div&gt;" style="rounded=1;arcSize=10;whiteSpace=wrap;html=1;align=center;" vertex="1" parent="1">
          <mxGeometry x="413" y="856" width="190" height="40" as="geometry" />
        </mxCell>
        <mxCell id="VcMTMCc4IQAr84tjY3mS-134" style="edgeStyle=orthogonalEdgeStyle;rounded=0;orthogonalLoop=1;jettySize=auto;html=1;" edge="1" parent="1" source="VcMTMCc4IQAr84tjY3mS-99" target="VcMTMCc4IQAr84tjY3mS-127">
          <mxGeometry relative="1" as="geometry" />
        </mxCell>
        <mxCell id="VcMTMCc4IQAr84tjY3mS-99" value="&lt;div style=&quot;font-family: Consolas, &amp;quot;Courier New&amp;quot;, monospace; font-size: 14px; line-height: 19px; white-space: pre;&quot;&gt;&lt;span style=&quot;background-color: rgb(255, 255, 255);&quot;&gt;&lt;font style=&quot;color: rgb(0, 0, 0);&quot;&gt;Send Results to Frontend&lt;/font&gt;&lt;/span&gt;&lt;/div&gt;" style="rounded=1;arcSize=10;whiteSpace=wrap;html=1;align=center;" vertex="1" parent="1">
          <mxGeometry x="394" y="959" width="220" height="40" as="geometry" />
        </mxCell>
        <mxCell id="VcMTMCc4IQAr84tjY3mS-132" style="edgeStyle=orthogonalEdgeStyle;rounded=0;orthogonalLoop=1;jettySize=auto;html=1;entryX=0.5;entryY=0;entryDx=0;entryDy=0;" edge="1" parent="1" source="VcMTMCc4IQAr84tjY3mS-103" target="VcMTMCc4IQAr84tjY3mS-127">
          <mxGeometry relative="1" as="geometry" />
        </mxCell>
        <mxCell id="VcMTMCc4IQAr84tjY3mS-103" value="Throws Error" style="rounded=1;arcSize=10;whiteSpace=wrap;html=1;align=center;" vertex="1" parent="1">
          <mxGeometry x="701" y="589" width="100" height="40" as="geometry" />
        </mxCell>
        <mxCell id="VcMTMCc4IQAr84tjY3mS-104" value="User Enters Ticker" style="rounded=1;arcSize=10;whiteSpace=wrap;html=1;align=center;" vertex="1" parent="1">
          <mxGeometry x="202" y="405" width="100" height="40" as="geometry" />
        </mxCell>
        <mxCell id="VcMTMCc4IQAr84tjY3mS-105" style="edgeStyle=orthogonalEdgeStyle;rounded=0;orthogonalLoop=1;jettySize=auto;html=1;exitX=0.5;exitY=1;exitDx=0;exitDy=0;entryX=0.5;entryY=0;entryDx=0;entryDy=0;entryPerimeter=0;" edge="1" parent="1" source="VcMTMCc4IQAr84tjY3mS-104" target="VcMTMCc4IQAr84tjY3mS-87">
          <mxGeometry relative="1" as="geometry" />
        </mxCell>
        <mxCell id="VcMTMCc4IQAr84tjY3mS-106" value="" style="ellipse;html=1;shape=endState;fillColor=#000000;strokeColor=#ff0000;" vertex="1" parent="1">
          <mxGeometry x="227" y="1131" width="30" height="30" as="geometry" />
        </mxCell>
        <mxCell id="VcMTMCc4IQAr84tjY3mS-107" style="edgeStyle=orthogonalEdgeStyle;rounded=0;orthogonalLoop=1;jettySize=auto;html=1;exitX=0.5;exitY=1;exitDx=0;exitDy=0;entryX=0.5;entryY=0;entryDx=0;entryDy=0;" edge="1" parent="1" source="VcMTMCc4IQAr84tjY3mS-108" target="VcMTMCc4IQAr84tjY3mS-115">
          <mxGeometry relative="1" as="geometry" />
        </mxCell>
        <mxCell id="VcMTMCc4IQAr84tjY3mS-108" value="Login/Signup" style="rounded=1;whiteSpace=wrap;html=1;" vertex="1" parent="1">
          <mxGeometry x="120" y="191" width="120" height="36" as="geometry" />
        </mxCell>
        <mxCell id="VcMTMCc4IQAr84tjY3mS-109" style="edgeStyle=orthogonalEdgeStyle;rounded=0;orthogonalLoop=1;jettySize=auto;html=1;exitX=0.5;exitY=1;exitDx=0;exitDy=0;entryX=0.5;entryY=0;entryDx=0;entryDy=0;" edge="1" parent="1" source="VcMTMCc4IQAr84tjY3mS-115" target="VcMTMCc4IQAr84tjY3mS-104">
          <mxGeometry relative="1" as="geometry">
            <mxPoint x="630.6842105263158" y="397.1052824321547" as="targetPoint" />
            <Array as="points">
              <mxPoint x="631" y="382" />
              <mxPoint x="251" y="382" />
              <mxPoint x="251" y="405" />
            </Array>
          </mxGeometry>
        </mxCell>
        <mxCell id="VcMTMCc4IQAr84tjY3mS-110" value="Yes" style="edgeLabel;html=1;align=center;verticalAlign=middle;resizable=0;points=[];" vertex="1" connectable="0" parent="VcMTMCc4IQAr84tjY3mS-109">
          <mxGeometry x="-0.5428" relative="1" as="geometry">
            <mxPoint as="offset" />
          </mxGeometry>
        </mxCell>
        <mxCell id="VcMTMCc4IQAr84tjY3mS-113" style="edgeStyle=orthogonalEdgeStyle;rounded=0;orthogonalLoop=1;jettySize=auto;html=1;exitX=0;exitY=0.5;exitDx=0;exitDy=0;entryX=0.5;entryY=0;entryDx=0;entryDy=0;" edge="1" parent="1" source="VcMTMCc4IQAr84tjY3mS-115" target="VcMTMCc4IQAr84tjY3mS-119">
          <mxGeometry relative="1" as="geometry" />
        </mxCell>
        <mxCell id="VcMTMCc4IQAr84tjY3mS-114" value="Yes" style="edgeLabel;html=1;align=center;verticalAlign=middle;resizable=0;points=[];" vertex="1" connectable="0" parent="VcMTMCc4IQAr84tjY3mS-113">
          <mxGeometry x="-0.4583" y="-2" relative="1" as="geometry">
            <mxPoint as="offset" />
          </mxGeometry>
        </mxCell>
        <mxCell id="VcMTMCc4IQAr84tjY3mS-130" style="edgeStyle=orthogonalEdgeStyle;rounded=0;orthogonalLoop=1;jettySize=auto;html=1;exitX=1;exitY=0.5;exitDx=0;exitDy=0;entryX=1;entryY=0.5;entryDx=0;entryDy=0;" edge="1" parent="1" source="VcMTMCc4IQAr84tjY3mS-115" target="VcMTMCc4IQAr84tjY3mS-108">
          <mxGeometry relative="1" as="geometry" />
        </mxCell>
        <mxCell id="VcMTMCc4IQAr84tjY3mS-131" value="No" style="edgeLabel;html=1;align=center;verticalAlign=middle;resizable=0;points=[];" vertex="1" connectable="0" parent="VcMTMCc4IQAr84tjY3mS-130">
          <mxGeometry x="-0.074" y="-1" relative="1" as="geometry">
            <mxPoint as="offset" />
          </mxGeometry>
        </mxCell>
        <mxCell id="VcMTMCc4IQAr84tjY3mS-115" value="Is Authenticated" style="rhombus;whiteSpace=wrap;html=1;" vertex="1" parent="1">
          <mxGeometry x="576.5" y="267" width="109" height="99" as="geometry" />
        </mxCell>
        <mxCell id="VcMTMCc4IQAr84tjY3mS-135" style="edgeStyle=orthogonalEdgeStyle;rounded=0;orthogonalLoop=1;jettySize=auto;html=1;exitX=0.5;exitY=1;exitDx=0;exitDy=0;entryX=0;entryY=0.5;entryDx=0;entryDy=0;" edge="1" parent="1" source="VcMTMCc4IQAr84tjY3mS-119" target="VcMTMCc4IQAr84tjY3mS-128">
          <mxGeometry relative="1" as="geometry" />
        </mxCell>
        <mxCell id="VcMTMCc4IQAr84tjY3mS-119" value="View EDA" style="rounded=1;whiteSpace=wrap;html=1;" vertex="1" parent="1">
          <mxGeometry x="50" y="724" width="100" height="41" as="geometry" />
        </mxCell>
        <mxCell id="VcMTMCc4IQAr84tjY3mS-120" value="" style="endArrow=none;html=1;rounded=0;exitX=-0.001;exitY=0.049;exitDx=0;exitDy=0;exitPerimeter=0;entryX=1;entryY=0.046;entryDx=0;entryDy=0;entryPerimeter=0;" edge="1" parent="1" source="VcMTMCc4IQAr84tjY3mS-80" target="VcMTMCc4IQAr84tjY3mS-80">
          <mxGeometry width="50" height="50" relative="1" as="geometry">
            <mxPoint x="101" y="192" as="sourcePoint" />
            <mxPoint x="151" y="142" as="targetPoint" />
          </mxGeometry>
        </mxCell>
        <mxCell id="VcMTMCc4IQAr84tjY3mS-121" value="" style="endArrow=none;html=1;rounded=0;entryX=0.25;entryY=0;entryDx=0;entryDy=0;exitX=0.25;exitY=1;exitDx=0;exitDy=0;" edge="1" parent="1">
          <mxGeometry width="50" height="50" relative="1" as="geometry">
            <mxPoint x="364" y="1184" as="sourcePoint" />
            <mxPoint x="364" y="76" as="targetPoint" />
          </mxGeometry>
        </mxCell>
        <mxCell id="VcMTMCc4IQAr84tjY3mS-122" value="" style="endArrow=none;html=1;rounded=0;entryX=0.25;entryY=0;entryDx=0;entryDy=0;exitX=0.25;exitY=1;exitDx=0;exitDy=0;" edge="1" parent="1">
          <mxGeometry width="50" height="50" relative="1" as="geometry">
            <mxPoint x="930" y="1184" as="sourcePoint" />
            <mxPoint x="930" y="76" as="targetPoint" />
          </mxGeometry>
        </mxCell>
        <mxCell id="VcMTMCc4IQAr84tjY3mS-123" value="User" style="text;html=1;align=center;verticalAlign=middle;whiteSpace=wrap;rounded=0;" vertex="1" parent="1">
          <mxGeometry x="150" y="89" width="60" height="30" as="geometry" />
        </mxCell>
        <mxCell id="VcMTMCc4IQAr84tjY3mS-124" value="System" style="text;html=1;align=center;verticalAlign=middle;whiteSpace=wrap;rounded=0;" vertex="1" parent="1">
          <mxGeometry x="629" y="89" width="60" height="30" as="geometry" />
        </mxCell>
        <mxCell id="VcMTMCc4IQAr84tjY3mS-125" value="Model" style="text;html=1;align=center;verticalAlign=middle;whiteSpace=wrap;rounded=0;" vertex="1" parent="1">
          <mxGeometry x="1006" y="89" width="60" height="30" as="geometry" />
        </mxCell>
        <mxCell id="VcMTMCc4IQAr84tjY3mS-133" style="edgeStyle=orthogonalEdgeStyle;rounded=0;orthogonalLoop=1;jettySize=auto;html=1;exitX=0.5;exitY=1;exitDx=0;exitDy=0;entryX=0.5;entryY=0;entryDx=0;entryDy=0;" edge="1" parent="1" source="VcMTMCc4IQAr84tjY3mS-127" target="VcMTMCc4IQAr84tjY3mS-128">
          <mxGeometry relative="1" as="geometry" />
        </mxCell>
        <mxCell id="VcMTMCc4IQAr84tjY3mS-127" value="View Results" style="rounded=1;whiteSpace=wrap;html=1;" vertex="1" parent="1">
          <mxGeometry x="192" y="958" width="100" height="41" as="geometry" />
        </mxCell>
        <mxCell id="VcMTMCc4IQAr84tjY3mS-129" value="" style="edgeStyle=orthogonalEdgeStyle;rounded=0;orthogonalLoop=1;jettySize=auto;html=1;" edge="1" parent="1" source="VcMTMCc4IQAr84tjY3mS-128" target="VcMTMCc4IQAr84tjY3mS-106">
          <mxGeometry relative="1" as="geometry" />
        </mxCell>
        <mxCell id="VcMTMCc4IQAr84tjY3mS-128" value="SignOut" style="rounded=1;whiteSpace=wrap;html=1;" vertex="1" parent="1">
          <mxGeometry x="192" y="1057" width="100" height="39" as="geometry" />
        </mxCell>
        <mxCell id="VcMTMCc4IQAr84tjY3mS-140" style="edgeStyle=orthogonalEdgeStyle;rounded=0;orthogonalLoop=1;jettySize=auto;html=1;exitX=0.5;exitY=1;exitDx=0;exitDy=0;entryX=0.5;entryY=0;entryDx=0;entryDy=0;" edge="1" parent="1" source="VcMTMCc4IQAr84tjY3mS-138" target="VcMTMCc4IQAr84tjY3mS-99">
          <mxGeometry relative="1" as="geometry" />
        </mxCell>
        <mxCell id="VcMTMCc4IQAr84tjY3mS-138" value="&lt;div style=&quot;font-family: Consolas, &amp;quot;Courier New&amp;quot;, monospace; font-size: 14px; line-height: 19px; white-space: pre;&quot;&gt;&lt;span style=&quot;background-color: rgb(255, 255, 255);&quot;&gt;&lt;font style=&quot;color: rgb(0, 0, 0);&quot;&gt;Stores Data to DB&lt;/font&gt;&lt;/span&gt;&lt;/div&gt;" style="rounded=1;arcSize=10;whiteSpace=wrap;html=1;align=center;" vertex="1" parent="1">
          <mxGeometry x="409" y="907" width="190" height="40" as="geometry" />
        </mxCell>
      </root>
    </mxGraphModel>
  </diagram>
</mxfile>
